<mxfile host="app.diagrams.net" agent="Mozilla/5.0 (Windows NT 10.0; Win64; x64) AppleWebKit/537.36 (KHTML, like Gecko) Chrome/138.0.0.0 Safari/537.36" version="27.2.0">
  <diagram name="Sayfa -1" id="LZmxCFsq6RdVCciG-EJJ">
    <mxGraphModel dx="1152" dy="589" grid="1" gridSize="10" guides="1" tooltips="1" connect="1" arrows="1" fold="1" page="1" pageScale="1" pageWidth="827" pageHeight="1169" math="0" shadow="0">
      <root>
        <mxCell id="0" />
        <mxCell id="1" parent="0" />
        <mxCell id="QoeDpqGoFHgT96D--xaK-6" style="edgeStyle=orthogonalEdgeStyle;rounded=0;orthogonalLoop=1;jettySize=auto;html=1;exitX=1;exitY=0.5;exitDx=0;exitDy=0;entryX=0;entryY=0.5;entryDx=0;entryDy=0;" edge="1" parent="1" source="QoeDpqGoFHgT96D--xaK-1" target="QoeDpqGoFHgT96D--xaK-3">
          <mxGeometry relative="1" as="geometry" />
        </mxCell>
        <mxCell id="QoeDpqGoFHgT96D--xaK-1" value="Embeddings" style="rounded=1;whiteSpace=wrap;html=1;" vertex="1" parent="1">
          <mxGeometry x="350" y="280" width="120" height="60" as="geometry" />
        </mxCell>
        <mxCell id="QoeDpqGoFHgT96D--xaK-7" style="edgeStyle=orthogonalEdgeStyle;rounded=0;orthogonalLoop=1;jettySize=auto;html=1;exitX=1;exitY=0.5;exitDx=0;exitDy=0;entryX=0;entryY=0.5;entryDx=0;entryDy=0;" edge="1" parent="1" source="QoeDpqGoFHgT96D--xaK-2" target="QoeDpqGoFHgT96D--xaK-1">
          <mxGeometry relative="1" as="geometry" />
        </mxCell>
        <mxCell id="QoeDpqGoFHgT96D--xaK-2" value="Catagory List" style="shape=document;whiteSpace=wrap;html=1;boundedLbl=1;" vertex="1" parent="1">
          <mxGeometry x="170" y="270" width="120" height="80" as="geometry" />
        </mxCell>
        <mxCell id="QoeDpqGoFHgT96D--xaK-5" value="" style="edgeStyle=orthogonalEdgeStyle;rounded=0;orthogonalLoop=1;jettySize=auto;html=1;" edge="1" parent="1" source="QoeDpqGoFHgT96D--xaK-3" target="QoeDpqGoFHgT96D--xaK-4">
          <mxGeometry relative="1" as="geometry" />
        </mxCell>
        <mxCell id="QoeDpqGoFHgT96D--xaK-3" value="Cosine Similarity" style="rounded=1;whiteSpace=wrap;html=1;" vertex="1" parent="1">
          <mxGeometry x="530" y="280" width="120" height="60" as="geometry" />
        </mxCell>
        <mxCell id="QoeDpqGoFHgT96D--xaK-4" value="Most Suitable Catagory for Product" style="whiteSpace=wrap;html=1;rounded=1;" vertex="1" parent="1">
          <mxGeometry x="707" y="280" width="120" height="60" as="geometry" />
        </mxCell>
      </root>
    </mxGraphModel>
  </diagram>
</mxfile>
